<svg xmlns="http://www.w3.org/2000/svg" width="1728" height="1117" viewBox="0 0 1728 1117" fill="none"><g clip-path="url(#clip0_3_661)"><rect width="1728" height="1117" fill="white"></rect><rect width="864" height="1117" fill="#EEE9DA"></rect><rect x="864" width="864" height="1117" fill="black"></rect><line x1="942.182" y1="-2.58228" x2="942.182" y2="1116.99" stroke="#EEE9DA" stroke-width="2"></line><line x1="863" y1="2.42926" x2="863" y2="1122" stroke="#EEE9DA" stroke-width="2"></line><line x1="1654.82" y1="-2.58228" x2="1654.82" y2="1116.99" stroke="#EEE9DA" stroke-width="2"></line><line x1="1575.64" y1="-2.58228" x2="1575.64" y2="1116.99" stroke="#EEE9DA" stroke-width="2"></line><line x1="1496.45" y1="-2.58228" x2="1496.45" y2="1116.99" stroke="#EEE9DA" stroke-width="2"></line><line x1="1338.09" y1="-2.58228" x2="1338.09" y2="1116.99" stroke="#EEE9DA" stroke-width="2"></line><line x1="1258.91" y1="-2.58228" x2="1258.91" y2="1116.99" stroke="#EEE9DA" stroke-width="2"></line><line x1="1179.73" y1="-2.58228" x2="1179.73" y2="1116.99" stroke="#EEE9DA" stroke-width="2"></line><line x1="1100.55" y1="-2.58228" x2="1100.55" y2="1116.99" stroke="#EEE9DA" stroke-width="2"></line><line x1="1021.36" y1="-2.58228" x2="1021.36" y2="1116.99" stroke="#EEE9DA" stroke-width="2"></line><line x1="1417.27" y1="-2.58228" x2="1417.27" y2="1116.99" stroke="#EEE9DA" stroke-width="2"></line><line x1="864" y1="1112" x2="1728" y2="1112" stroke="#EEE9DA" stroke-width="2"></line><line x1="864" y1="102" x2="1728" y2="102" stroke="#EEE9DA" stroke-width="2"></line><line x1="864" y1="405" x2="1728" y2="405" stroke="#EEE9DA" stroke-width="2"></line><line x1="864" y1="506" x2="1728" y2="506" stroke="#EEE9DA" stroke-width="2"></line><line x1="864" y1="304" x2="1728" y2="304" stroke="#EEE9DA" stroke-width="2"></line><line x1="864" y1="203" x2="1728" y2="203" stroke="#EEE9DA" stroke-width="2"></line><line x1="864" y1="607" x2="1728" y2="607" stroke="#EEE9DA" stroke-width="2"></line><line x1="864" y1="910" x2="1728" y2="910" stroke="#EEE9DA" stroke-width="2"></line><line x1="864" y1="1" x2="1728" y2="1.00008" stroke="#EEE9DA" stroke-width="2"></line><line x1="864" y1="809" x2="1728" y2="809" stroke="#EEE9DA" stroke-width="2"></line><path d="M864 1012L1728 1012" stroke="#EEE9DA" stroke-width="2"></path><line x1="864" y1="708" x2="1728" y2="708" stroke="#EEE9DA" stroke-width="2"></line></g><defs><clipPath id="clip0_3_661"><rect width="1728" height="1117" fill="white"></rect></clipPath></defs></svg>