<svg xmlns="http://www.w3.org/2000/svg" width="428" height="926" viewBox="0 0 428 926" fill="none"><g clip-path="url(#clip0_6_32)"><rect width="428" height="926" fill="white"></rect><rect width="428" height="463" fill="#EEE9DA"></rect><rect y="464" width="428" height="463" fill="black"></rect><line x1="380.668" y1="463" x2="380.668" y2="1104.71" stroke="#EEE9DA" stroke-width="2"></line><line x1="333.102" y1="463" x2="333.102" y2="1104.71" stroke="#EEE9DA" stroke-width="2"></line><line x1="285.535" y1="463" x2="285.535" y2="1104.71" stroke="#EEE9DA" stroke-width="2"></line><line x1="190.401" y1="463" x2="190.401" y2="1104.71" stroke="#EEE9DA" stroke-width="2"></line><line x1="142.834" y1="463" x2="142.834" y2="1104.71" stroke="#EEE9DA" stroke-width="2"></line><line x1="95.2675" y1="463" x2="95.2675" y2="1104.71" stroke="#EEE9DA" stroke-width="2"></line><line x1="47.7004" y1="463" x2="47.7005" y2="1104.71" stroke="#EEE9DA" stroke-width="2"></line><line x1="0.133667" y1="463" x2="0.133696" y2="1104.71" stroke="#EEE9DA" stroke-width="2"></line><line x1="237.968" y1="463" x2="237.968" y2="1104.71" stroke="#EEE9DA" stroke-width="2"></line><line x1="428.235" y1="463" x2="428.235" y2="1104.71" stroke="#EEE9DA" stroke-width="2"></line><line x1="1" y1="522.517" x2="426.369" y2="522.517" stroke="#EEE9DA" stroke-width="2"></line><line x1="1" y1="696.189" x2="426.369" y2="696.189" stroke="#EEE9DA" stroke-width="2"></line><line x1="1" y1="754.08" x2="426.369" y2="754.08" stroke="#EEE9DA" stroke-width="2"></line><line x1="1" y1="638.298" x2="426.369" y2="638.298" stroke="#EEE9DA" stroke-width="2"></line><line x1="1" y1="580.408" x2="426.369" y2="580.408" stroke="#EEE9DA" stroke-width="2"></line><line x1="1" y1="811.97" x2="426.369" y2="811.97" stroke="#EEE9DA" stroke-width="2"></line><line x1="1" y1="464.626" x2="426.369" y2="464.626" stroke="#EEE9DA" stroke-width="2"></line><line x1="1" y1="869.861" x2="426.369" y2="869.861" stroke="#EEE9DA" stroke-width="2"></line></g><defs><clipPath id="clip0_6_32"><rect width="428" height="926" fill="white"></rect></clipPath></defs></svg>