<svg width="35" height="36" viewBox="0 0 35 36" fill="none" xmlns="http://www.w3.org/2000/svg">
<path d="M12.2812 35.4922C10.2031 35.4922 8.20312 35.1875 6.28125 34.5781C4.35938 33.9688 2.52344 33.0312 0.773438 31.7656V24.4766H4.35938L5.13281 29.8438C6.14844 30.4688 7.25 30.9531 8.4375 31.2969C9.625 31.6406 10.9062 31.8125 12.2812 31.8125C13.8438 31.8125 15.1641 31.5781 16.2422 31.1094C17.3359 30.625 18.1719 29.9609 18.75 29.1172C19.3281 28.2734 19.6172 27.2891 19.6172 26.1641C19.6172 25.1172 19.3672 24.1953 18.8672 23.3984C18.3672 22.6016 17.5391 21.9062 16.3828 21.3125C15.2422 20.7031 13.6797 20.1719 11.6953 19.7188C9.35156 19.1719 7.36719 18.4453 5.74219 17.5391C4.13281 16.6172 2.90625 15.5078 2.0625 14.2109C1.23438 12.8984 0.820312 11.3984 0.820312 9.71094C0.820312 7.92969 1.28906 6.33594 2.22656 4.92969C3.17969 3.52344 4.5 2.41406 6.1875 1.60156C7.875 0.789062 9.84375 0.382812 12.0938 0.382812C14.4844 0.382812 16.5938 0.75 18.4219 1.48438C20.2656 2.20313 21.7812 3.07812 22.9688 4.10938V10.9297H19.3828L18.6094 6.05469C17.9062 5.49219 17.0312 5.02344 15.9844 4.64844C14.9375 4.27344 13.6406 4.08594 12.0938 4.08594C10.7812 4.08594 9.625 4.32031 8.625 4.78906C7.625 5.24219 6.84375 5.88281 6.28125 6.71094C5.71875 7.53906 5.4375 8.51562 5.4375 9.64062C5.4375 10.625 5.6875 11.4844 6.1875 12.2188C6.70312 12.9531 7.53125 13.6016 8.67188 14.1641C9.82812 14.7109 11.3672 15.2266 13.2891 15.7109C16.8828 16.6016 19.6016 17.9219 21.4453 19.6719C23.3047 21.4062 24.2344 23.5547 24.2344 26.1172C24.2344 27.9453 23.7422 29.5703 22.7578 30.9922C21.7734 32.3984 20.3828 33.5 18.5859 34.2969C16.8047 35.0938 14.7031 35.4922 12.2812 35.4922ZM29.7422 35V30.2656H34.3594V35H29.7422Z" fill="#EEE9DA"/>
<path d="M0.773438 31.7656H0.273438V32.0211L0.480428 32.1708L0.773438 31.7656ZM0.773438 24.4766V23.9766H0.273438V24.4766H0.773438ZM4.35938 24.4766L4.85426 24.4052L4.79249 23.9766H4.35938V24.4766ZM5.13281 29.8438L4.63792 29.9151L4.67133 30.1468L4.87076 30.2696L5.13281 29.8438ZM16.2422 31.1094L16.4416 31.5679L16.4447 31.5665L16.2422 31.1094ZM16.3828 21.3125L16.1472 21.7536L16.1544 21.7573L16.3828 21.3125ZM11.6953 19.7188L11.5817 20.2057L11.584 20.2062L11.6953 19.7188ZM5.74219 17.5391L5.49365 17.973L5.49865 17.9757L5.74219 17.5391ZM2.0625 14.2109L1.63959 14.4778L1.64339 14.4836L2.0625 14.2109ZM2.22656 4.92969L1.81266 4.64915L1.81054 4.65234L2.22656 4.92969ZM18.4219 1.48438L18.2355 1.94836L18.2403 1.95023L18.4219 1.48438ZM22.9688 4.10938H23.4688V3.88136L23.2966 3.73186L22.9688 4.10938ZM22.9688 10.9297V11.4297H23.4688V10.9297H22.9688ZM19.3828 10.9297L18.889 11.008L18.9559 11.4297H19.3828V10.9297ZM18.6094 6.05469L19.1032 5.97634L19.0729 5.78517L18.9217 5.66425L18.6094 6.05469ZM8.625 4.78906L8.83138 5.24453L8.83722 5.24179L8.625 4.78906ZM6.1875 12.2188L5.77416 12.5002L5.77829 12.5061L6.1875 12.2188ZM8.67188 14.1641L8.4507 14.6126L8.45809 14.6161L8.67188 14.1641ZM13.2891 15.7109L13.1669 16.1958L13.1688 16.1963L13.2891 15.7109ZM21.4453 19.6719L21.1011 20.0345L21.1043 20.0375L21.4453 19.6719ZM22.7578 30.9922L23.1674 31.2789L23.1689 31.2768L22.7578 30.9922ZM18.5859 34.2969L18.3832 33.8398L18.3818 33.8405L18.5859 34.2969ZM12.2812 34.9922C10.2528 34.9922 8.30388 34.6949 6.43237 34.1015L6.13013 35.0547C8.10237 35.6801 10.1534 35.9922 12.2812 35.9922V34.9922ZM6.43237 34.1015C4.5648 33.5094 2.77634 32.5971 1.06645 31.3605L0.480428 32.1708C2.27053 33.4654 4.15395 34.4281 6.13013 35.0547L6.43237 34.1015ZM1.27344 31.7656V24.4766H0.273438V31.7656H1.27344ZM0.773438 24.9766H4.35938V23.9766H0.773438V24.9766ZM3.86449 24.5479L4.63792 29.9151L5.6277 29.7724L4.85426 24.4052L3.86449 24.5479ZM4.87076 30.2696C5.92614 30.919 7.06929 31.4213 8.29847 31.7772L8.57653 30.8166C7.43071 30.4849 6.37073 30.0185 5.39486 29.4179L4.87076 30.2696ZM8.29847 31.7772C9.5359 32.1354 10.8644 32.3125 12.2812 32.3125V31.3125C10.9481 31.3125 9.7141 31.1459 8.57653 30.8166L8.29847 31.7772ZM12.2812 32.3125C13.8909 32.3125 15.2835 32.0714 16.4416 31.5679L16.0428 30.6508C15.0447 31.0848 13.7966 31.3125 12.2812 31.3125V32.3125ZM16.4447 31.5665C17.6086 31.0511 18.5235 30.3323 19.1625 29.3998L18.3375 28.8346C17.8202 29.5896 17.0632 30.1989 16.0397 30.6522L16.4447 31.5665ZM19.1625 29.3998C19.8033 28.4646 20.1172 27.3794 20.1172 26.1641H19.1172C19.1172 27.1987 18.853 28.0823 18.3375 28.8346L19.1625 29.3998ZM20.1172 26.1641C20.1172 25.0341 19.8462 24.018 19.2907 23.1327L18.4437 23.6642C18.8882 24.3726 19.1172 25.2003 19.1172 26.1641H20.1172ZM19.2907 23.1327C18.7281 22.236 17.8182 21.4875 16.6112 20.8677L16.1544 21.7573C17.2599 22.325 18.0063 22.9671 18.4437 23.6642L19.2907 23.1327ZM16.6184 20.8715C15.4229 20.2328 13.8126 19.6893 11.8066 19.2313L11.584 20.2062C13.5468 20.6544 15.0615 21.1735 16.1472 21.7535L16.6184 20.8715ZM11.8089 19.2318C9.49806 18.6926 7.56007 17.9804 5.98572 17.1024L5.49865 17.9757C7.17431 18.9102 9.20506 19.6511 11.5817 20.2057L11.8089 19.2318ZM5.99071 17.1052C4.43661 16.215 3.2743 15.1567 2.48161 13.9383L1.64339 14.4836C2.5382 15.859 3.82902 17.0194 5.49366 17.9729L5.99071 17.1052ZM2.48536 13.9441C1.71202 12.7184 1.32031 11.3126 1.32031 9.71094H0.320312C0.320312 11.4843 0.756732 13.0784 1.63964 14.4777L2.48536 13.9441ZM1.32031 9.71094C1.32031 8.02279 1.76287 6.52661 2.64259 5.20704L1.81054 4.65234C0.81525 6.14527 0.320312 7.83659 0.320312 9.71094H1.32031ZM2.64045 5.21021C3.5391 3.88433 4.78805 2.83031 6.40441 2.05206L5.97059 1.15106C4.21195 1.99781 2.82027 3.16254 1.81267 4.64916L2.64045 5.21021ZM6.40441 2.05206C8.01197 1.27805 9.90393 0.882812 12.0938 0.882812V-0.117188C9.78357 -0.117188 7.73803 0.300074 5.97059 1.15106L6.40441 2.05206ZM12.0938 0.882812C14.4338 0.882812 16.4778 1.24226 18.2355 1.94834L18.6083 1.02041C16.7097 0.257742 14.535 -0.117188 12.0938 -0.117188V0.882812ZM18.2403 1.95023C20.0438 2.65329 21.5063 3.50155 22.6409 4.48689L23.2966 3.73186C22.0562 2.6547 20.4875 1.75296 18.6035 1.01852L18.2403 1.95023ZM22.4688 4.10938V10.9297H23.4688V4.10938H22.4688ZM22.9688 10.4297H19.3828V11.4297H22.9688V10.4297ZM19.8766 10.8513L19.1032 5.97634L18.1156 6.13303L18.889 11.008L19.8766 10.8513ZM18.9217 5.66425C18.1667 5.06022 17.2401 4.56715 16.153 4.17773L15.8158 5.11915C16.8224 5.47973 17.6458 5.92416 18.297 6.44512L18.9217 5.66425ZM16.153 4.17773C15.0354 3.7774 13.6773 3.58594 12.0938 3.58594V4.58594C13.6039 4.58594 14.8396 4.76948 15.8158 5.11915L16.153 4.17773ZM12.0938 3.58594C10.7216 3.58594 9.49055 3.83113 8.41278 4.33633L8.83722 5.24179C9.75945 4.80949 10.8409 4.58594 12.0938 4.58594V3.58594ZM8.41863 4.33364C7.34319 4.82095 6.48678 5.51848 5.86764 6.43L6.69486 6.99188C7.20072 6.24714 7.90681 5.66343 8.83137 5.24449L8.41863 4.33364ZM5.86764 6.43C5.24203 7.35103 4.9375 8.4283 4.9375 9.64062H5.9375C5.9375 8.60295 6.19547 7.72709 6.69486 6.99188L5.86764 6.43ZM4.9375 9.64062C4.9375 10.7141 5.21167 11.6739 5.7742 12.5001L6.6008 11.9374C6.16333 11.2948 5.9375 10.5359 5.9375 9.64062H4.9375ZM5.77829 12.5061C6.35803 13.3318 7.26445 14.0275 8.45073 14.6125L8.89302 13.7156C7.79805 13.1756 7.04822 12.5745 6.59671 11.9314L5.77829 12.5061ZM8.45809 14.6161C9.65511 15.1822 11.2286 15.7073 13.1669 16.1958L13.4113 15.2261C11.5057 14.7458 10.0011 14.2397 8.88566 13.7121L8.45809 14.6161ZM13.1688 16.1963C16.7144 17.0749 19.3424 18.3652 21.1011 20.0345L21.7895 19.3092C19.8608 17.4785 17.0512 16.1282 13.4093 15.2256L13.1688 16.1963ZM21.1043 20.0375C22.8614 21.6765 23.7344 23.6921 23.7344 26.1172H24.7344C24.7344 23.4173 23.748 21.136 21.7864 19.3062L21.1043 20.0375ZM23.7344 26.1172C23.7344 27.8498 23.2698 29.3742 22.3467 30.7076L23.1689 31.2768C24.2146 29.7664 24.7344 28.0409 24.7344 26.1172H23.7344ZM22.3482 30.7055C21.4232 32.0268 20.1092 33.0744 18.3832 33.8398L18.7886 34.7539C20.6564 33.9256 22.1237 32.77 23.1674 31.2789L22.3482 30.7055ZM18.3818 33.8405C16.6783 34.6026 14.6492 34.9922 12.2812 34.9922V35.9922C14.757 35.9922 16.9311 35.5849 18.7901 34.7533L18.3818 33.8405ZM29.7422 35H29.2422V35.5H29.7422V35ZM29.7422 30.2656V29.7656H29.2422V30.2656H29.7422ZM34.3594 30.2656H34.8594V29.7656H34.3594V30.2656ZM34.3594 35V35.5H34.8594V35H34.3594ZM30.2422 35V30.2656H29.2422V35H30.2422ZM29.7422 30.7656H34.3594V29.7656H29.7422V30.7656ZM33.8594 30.2656V35H34.8594V30.2656H33.8594ZM34.3594 34.5H29.7422V35.5H34.3594V34.5Z" fill="black"/>
</svg>
